#N canvas 747 68 561 649 12;
#X floatatom 136 144 5 0 127 2 Velocity - -, f 5;
#X floatatom 244 143 5 0 5000 2 Duration - -, f 5;
#X msg 245 252 0;
#X floatatom 135 299 5 0 0 0 - - -, f 5;
#X obj 135 333 sel 0;
#X obj 133 460 bng 15 250 50 0 empty empty empty 17 7 0 10 #fcfcfc
#000000 #000000;
#X obj 134 551 line~;
#X obj 135 259 expr $f1/127;
#X floatatom 264 361 5 0 0 0 - - -, f 5;
#X floatatom 331 311 5 0 0 2 Attack - -, f 5;
#X floatatom 200 460 5 0 0 2 Release - -, f 5;
#X obj 421 387 expr $f1/127;
#X floatatom 438 314 5 0 127 2 Sustain - -, f 5;
#X floatatom 470 434 5 0 5000 2 Decay - -, f 5;
#X obj 421 348 f 1;
#X obj 371 429 *;
#X obj 263 396 t f b f;
#X obj 135 366 t b b;
#X msg 166 401 stop;
#X obj 56 40 inlet;
#X obj 136 39 inlet;
#X obj 243 39 inlet;
#X obj 334 38 inlet;
#X obj 383 36 inlet;
#X obj 435 35 inlet;
#X obj 489 35 inlet;
#X obj 57 184 t b b;
#X obj 134 593 outlet~;
#X obj 135 223 f \$1;
#X obj 245 220 del \$2;
#X obj 264 435 pack f \$3;
#X obj 371 468 pack f \$4;
#X obj 356 369 del \$5;
#X obj 133 505 pack 0 \$6;
#X connect 0 0 28 1;
#X connect 1 0 29 1;
#X connect 2 0 3 0;
#X connect 3 0 4 0;
#X connect 4 0 17 0;
#X connect 4 1 8 0;
#X connect 5 0 33 0;
#X connect 6 0 27 0;
#X connect 7 0 3 0;
#X connect 8 0 16 0;
#X connect 9 0 30 1;
#X connect 9 0 32 1;
#X connect 10 0 33 1;
#X connect 11 0 15 0;
#X connect 12 0 14 1;
#X connect 13 0 31 1;
#X connect 14 0 11 0;
#X connect 15 0 31 0;
#X connect 16 0 30 0;
#X connect 16 1 32 0;
#X connect 16 2 15 1;
#X connect 17 0 5 0;
#X connect 17 1 18 0;
#X connect 18 0 32 0;
#X connect 19 0 26 0;
#X connect 20 0 0 0;
#X connect 21 0 1 0;
#X connect 22 0 9 0;
#X connect 23 0 13 0;
#X connect 24 0 12 0;
#X connect 25 0 10 0;
#X connect 26 0 28 0;
#X connect 26 1 29 0;
#X connect 28 0 7 0;
#X connect 29 0 2 0;
#X connect 30 0 6 0;
#X connect 31 0 6 0;
#X connect 32 0 14 0;
#X connect 33 0 6 0;
