#N canvas 493 367 473 398 12;
#X obj 57 68 inlet~;
#X obj 56 240 *~;
#X obj 58 317 outlet~;
#X obj 316 119 osc~;
#X floatatom 316 52 5 0 0 1 Hz - -, f 5;
#X obj 97 165 expr 1-$f1;
#X floatatom 97 199 5 0 0 0 - - -, f 5;
#X floatatom 248 54 5 0 100 1 % - -, f 5;
#X obj 248 101 * 0.01;
#X floatatom 248 134 5 0 0 0 - - -, f 5;
#X obj 224 176 *~ 0;
#X obj 298 233 *~;
#X connect 0 0 1 0;
#X connect 0 0 10 0;
#X connect 1 0 2 0;
#X connect 3 0 11 1;
#X connect 4 0 3 0;
#X connect 5 0 6 0;
#X connect 6 0 1 1;
#X connect 7 0 8 0;
#X connect 8 0 9 0;
#X connect 9 0 10 1;
#X connect 10 0 11 0;
#X connect 11 0 2 0;
#X coords 0 -1 1 1 141 37 2 238 45;
