#N canvas 377 313 679 678 12;
#X obj 335 189 tgl 15 0 empty empty empty 17 7 0 10 #fcfcfc #000000
#000000 0 1;
#X obj 336 220 metro 90;
#X obj 512 112 tgl 15 0 empty empty empty 17 7 0 10 #fcfcfc #000000
#000000 1 1;
#X msg 512 145 \; pd dsp \$1;
#N canvas 0 22 450 300 (subpatch) 0;
#X array snd 3075 float 0 black black;
#X coords 0 1 3074 -1 200 140 1;
#X restore 48 203 graph;
#X obj 335 357 tabplay~ snd;
#X obj 333 416 dac~;
#X floatatom 389 186 5 0 0 0 - - -, f 5;
#X text 426 185 ms;
#X obj 335 116 key;
#X obj 335 152 sel 32;
#N canvas 764 23 751 472 subseqbox 0;
#N canvas 0 22 450 300 (subpatch) 0;
#X array popo 16 float 3 black black;
#A 0 1 0 0 1 0 0 1 0 1 1 0 1 1 0 1 1;
#X coords 0 1 16 0 240 20 1;
#X restore 108 112 graph;
#X obj 215 461 tabwrite popo;
#X floatatom 215 409 5 0 0 0 - - -, f 5;
#X floatatom 303 421 5 0 0 0 - - -, f 5;
#X obj 214 360 unpack 0 0;
#X msg -133 237 \$1 0;
#X msg -90 238 \$1 1;
#X msg -47 238 \$1 2;
#X msg -4 238 \$1 3;
#X msg 41 238 \$1 4;
#X msg 84 239 \$1 5;
#X msg 127 239 \$1 6;
#X msg 170 239 \$1 7;
#X msg 214 239 \$1 8;
#X msg 257 240 \$1 9;
#X msg 300 240 \$1 10;
#X msg 350 239 \$1 11;
#X msg 400 239 \$1 12;
#X msg 450 238 \$1 13;
#X msg 499 239 \$1 14;
#X msg 549 238 \$1 15;
#X obj 109 136 tgl 15 0 empty empty empty 17 7 0 10 #ff2600 #000000
#000000 1 1;
#X obj 124 136 tgl 15 0 empty empty empty 17 7 0 10 #fcfcfc #000000
#000000 0 1;
#X obj 139 136 tgl 15 0 empty empty empty 17 7 0 10 #fcfcfc #000000
#000000 0 1;
#X obj 154 136 tgl 15 0 empty empty empty 17 7 0 10 #fcfcfc #000000
#000000 1 1;
#X obj 169 136 tgl 15 0 empty empty empty 17 7 0 10 #ff2600 #000000
#000000 0 1;
#X obj 184 136 tgl 15 0 empty empty empty 17 7 0 10 #fcfcfc #000000
#000000 0 1;
#X obj 199 136 tgl 15 0 empty empty empty 17 7 0 10 #fcfcfc #000000
#000000 1 1;
#X obj 214 136 tgl 15 0 empty empty empty 17 7 0 10 #fcfcfc #000000
#000000 0 1;
#X obj 229 136 tgl 15 0 empty empty empty 17 7 0 10 #ff2600 #000000
#000000 1 1;
#X obj 244 136 tgl 15 0 empty empty empty 17 7 0 10 #fcfcfc #000000
#000000 1 1;
#X obj 259 136 tgl 15 0 empty empty empty 17 7 0 10 #fcfcfc #000000
#000000 0 1;
#X obj 274 136 tgl 15 0 empty empty empty 17 7 0 10 #fcfcfc #000000
#000000 1 1;
#X obj 289 136 tgl 15 0 empty empty empty 17 7 0 10 #ff2600 #000000
#000000 1 1;
#X obj 304 136 tgl 15 0 empty empty empty 17 7 0 10 #fcfcfc #000000
#000000 0 1;
#X obj 319 136 tgl 15 0 empty empty empty 17 7 0 10 #fcfcfc #000000
#000000 1 1;
#X obj 334 136 tgl 15 0 empty empty empty 17 7 0 10 #fcfcfc #000000
#000000 1 1;
#X connect 2 0 1 0;
#X connect 3 0 1 1;
#X connect 4 0 2 0;
#X connect 4 1 3 0;
#X connect 5 0 4 0;
#X connect 6 0 4 0;
#X connect 7 0 4 0;
#X connect 8 0 4 0;
#X connect 9 0 4 0;
#X connect 10 0 4 0;
#X connect 11 0 4 0;
#X connect 12 0 4 0;
#X connect 13 0 4 0;
#X connect 14 0 4 0;
#X connect 15 0 4 0;
#X connect 16 0 4 0;
#X connect 17 0 4 0;
#X connect 18 0 4 0;
#X connect 19 0 4 0;
#X connect 20 0 4 0;
#X connect 21 0 5 0;
#X connect 22 0 6 0;
#X connect 23 0 7 0;
#X connect 24 0 8 0;
#X connect 25 0 9 0;
#X connect 26 0 10 0;
#X connect 27 0 11 0;
#X connect 28 0 12 0;
#X connect 29 0 13 0;
#X connect 30 0 14 0;
#X connect 31 0 15 0;
#X connect 32 0 16 0;
#X connect 33 0 17 0;
#X connect 34 0 18 0;
#X connect 35 0 19 0;
#X connect 36 0 20 0;
#X coords 0 -1 1 1 260 60 2 100 100;
#X restore 21 114 pd subseqbox;
#N canvas 735 23 450 300 file_read 0;
#X obj 103 103 bng 15 250 50 0 empty empty empty 17 7 0 10 #fcfcfc
#000000 #000000;
#X obj 103 135 openpanel;
#X msg 103 170 read -resize \$1 snd;
#X obj 103 204 soundfiler;
#X connect 0 0 1 0;
#X connect 1 0 2 0;
#X connect 2 0 3 0;
#X coords 0 -1 1 1 20 20 2 100 100;
#X restore 19 204 pd file_read;
#N canvas 735 23 450 300 seq_play 0;
#X obj 161 53 counter 0 0 15;
#X floatatom 160 89 5 0 0 0 - - -, f 5;
#X obj 160 123 tabread popo;
#X floatatom 159 156 5 0 0 0 - - -, f 5;
#X obj 158 190 sel 1;
#X obj 158 225 bng 15 250 50 0 empty empty empty 17 7 0 10 #fcfcfc
#000000 #000000;
#X floatatom 277 53 5 0 0 0 - - -, f 5;
#X obj 160 13 inlet;
#X obj 160 256 outlet;
#X connect 0 0 1 0;
#X connect 0 3 6 0;
#X connect 1 0 2 0;
#X connect 2 0 3 0;
#X connect 3 0 4 0;
#X connect 4 0 5 0;
#X connect 5 0 8 0;
#X connect 7 0 0 0;
#X restore 336 272 pd seq_play;
#X obj 336 321 bng 15 250 50 0 empty empty empty 17 7 0 10 #fcfcfc
#000000 #000000;
#N canvas 735 23 513 349 scopebox 0;
#X obj 333 247 tabwrite~ scope;
#X obj 379 208 metro 30;
#X obj 379 177 tgl 15 0 empty empty empty 17 7 0 10 #fcfcfc #000000
#000000 1 1;
#N canvas 0 22 450 300 (subpatch) 0;
#X array scope 512 float 3 black black;
#A 0 0 0 0 0 0 0 0 0 0 0 0 0 0 0 0 0 0 0 0 0 0 0 0 0 0 0 0 0 0 0 0
0 0 0 0 0 0 0 0 0 0 0 0 0 0 0 0 0 0 0 0 0 0 0 0 0 0 0 0 0 0 0 0 0 0
0 0 0 0 0 0 0 0 0 0 0 0 0 0 0 0 0 0 0 0 0 0 0 0 0 0 0 0 0 0 0 0 0 0
0 0 0 0 0 0 0 0 0 0 0 0 0 0 0 0 0 0 0 0 0 0 0 0 0 0 0 0 0 0 0 0 0 0
0 0 0 0 0 0 0 0 0 0 0 0 0 0 0 0 0 0 0 0 0 0 0 0 0 0 0 0 0 0 0 0 0 0
0 0 0 0 0 0 0 0 0 0 0 0 0 0 0 0 0 0 0 0 0 0 0 0 0 0 0 0 0 0 0 0 0 0
0 0 0 0 0 0 0 0 0 0 0 0 0 0 0 0 0 0 0 0 0 0 0 0 0 0 0 0 0 0 0 0 0 0
0 0 0 0 0 0 0 0 0 0 0 0 0 0 0 0 0 0 0 0 0 0 0 0 0 0 0 0 0 0 0 0 0 0
0 0 0 0 0 0 0 0 0 0 0 0 0 0 0 0 0 0 0 0 0 0 0 0 0 0 0 0 0 0 0 0 0 0
0 0 0 0 0 0 0 0 0 0 0 0 0 0 0 0 0 0 0 0 0 0 0 0 0 0 0 0 0 0 0 0 0 0
0 0 0 0 0 0 0 0 0 0 0 0 0 0 0 0 0 0 0 0 0 0 0 0 0 0 0 0 0 0 0 0 0 0
0 0 0 0 0 0 0 0 0 0 0 0 0 0 0 0 0 0 0 0 0 0 0 0 0 0 0 0 0 0 0 0 0 0
0 0 0 0 0 0 0 0 0 0 0 0 0 0 0 0 0 0 0 0 0 0 0 0 0 0 0 0 0 0 0 0 0 0
0 0 0 0 0 0 0 0 0 0 0 0 0 0 0 0 0 0 0 0 0 0 0 0 0 0 0 0 0 0 0 0 0 0
0 0 0 0 0 0 0 0 0 0 0 0 0 0 0 0 0 0 0 0 0 0 0 0 0 0 0 0 0 0 0 0 0 0
0 0 0 0 0;
#X coords 0 1 512 -1 200 140 1;
#X restore 108 113 graph;
#X obj 334 48 receive~ scope_output;
#X obj 376 91 loadbang;
#X msg 377 129 1;
#X connect 1 0 0 0;
#X connect 2 0 1 0;
#X connect 4 0 0 0;
#X connect 5 0 6 0;
#X connect 6 0 2 0;
#X coords 0 -1 1 1 210 165 2 100 100;
#X restore 39 347 pd scopebox;
#X obj 392 415 send~ scope_output;
#X obj 512 29 loadbang;
#X msg 513 66 1;
#X connect 0 0 1 0;
#X connect 1 0 13 0;
#X connect 2 0 3 0;
#X connect 5 0 6 0;
#X connect 5 0 6 1;
#X connect 5 0 16 0;
#X connect 7 0 1 1;
#X connect 9 0 10 0;
#X connect 10 0 0 0;
#X connect 13 0 14 0;
#X connect 14 0 5 0;
#X connect 17 0 18 0;
#X connect 18 0 2 0;
#X connect 18 0 3 0;
