#N canvas 314 170 704 702 12;
#X floatatom 37 128 5 0 127 2 Pitch - -, f 5;
#X obj 38 207 mtof;
#X floatatom 37 247 5 0 0 0 - - -, f 5;
#X obj 37 287 osc~;
#X obj 40 571 *~;
#X obj 39 612 dac~;
#X floatatom 117 128 5 0 127 2 Velocity - -, f 5;
#X floatatom 225 127 5 0 5000 2 Duration - -, f 5;
#X obj 226 204 del 1000;
#X obj 38 168 t f b b;
#X obj 116 207 f 127;
#X msg 226 236 0;
#X floatatom 116 283 5 0 0 0 - - -, f 5;
#X obj 116 317 sel 0;
#X obj 114 444 bng 15 250 50 0 empty empty empty 17 7 0 10 #fcfcfc
#000000 #000000;
#X obj 115 535 line~;
#X obj 114 571 snapshot~;
#X floatatom 113 611 5 0 0 0 - - -, f 5;
#X obj 195 599 metro 10;
#X obj 195 571 tgl 15 0 empty empty empty 17 7 0 10 #fcfcfc #000000
#000000 0 1;
#X obj 116 243 expr $f1/127;
#X floatatom 245 345 5 0 0 0 - - -, f 5;
#X obj 245 419 pack f 100;
#X floatatom 312 295 5 0 0 2 Attack - -, f 5;
#X obj 114 489 pack 0 200;
#X floatatom 181 444 5 0 0 2 Release - -, f 5;
#X obj 402 371 expr $f1/127;
#X floatatom 419 298 5 0 127 2 Sustain - -, f 5;
#X floatatom 451 418 5 0 5000 2 Decay - -, f 5;
#X obj 35 83 bng 15 250 50 0 empty empty empty 17 7 0 10 #fcfcfc #000000
#000000;
#X obj 402 332 f 1;
#X obj 352 413 *;
#X obj 244 380 t f b f;
#X obj 337 353 del 50;
#X obj 352 452 pack f 100;
#X obj 116 350 t b b;
#X msg 147 385 stop;
#X obj 390 97 vsl 15 128 0 4000 0 0 empty empty Dur 0 -9 0 10 #fcfcfc
#000000 #000000 4450 1;
#X obj 414 97 vsl 15 128 0 500 0 0 empty empty A 0 -9 0 10 #fcfcfc
#000000 #000000 9650 1;
#X obj 440 97 vsl 15 128 0 500 0 0 empty empty D 0 -9 0 10 #fcfcfc
#000000 #000000 7300 1;
#X obj 465 97 vsl 15 128 0 127 0 0 empty empty S 0 -9 0 10 #fcfcfc
#000000 #000000 6200 1;
#X obj 491 98 vsl 15 128 0 2000 0 0 empty empty R 0 -9 0 10 #fcfcfc
#000000 #000000 7700 1;
#X obj 36 18 key;
#X obj 36 50 sel 32;
#X connect 0 0 9 0;
#X connect 1 0 2 0;
#X connect 2 0 3 0;
#X connect 3 0 4 0;
#X connect 4 0 5 0;
#X connect 4 0 5 1;
#X connect 6 0 10 1;
#X connect 7 0 8 1;
#X connect 8 0 11 0;
#X connect 9 0 1 0;
#X connect 9 1 10 0;
#X connect 9 2 8 0;
#X connect 10 0 20 0;
#X connect 11 0 12 0;
#X connect 12 0 13 0;
#X connect 13 0 35 0;
#X connect 13 1 21 0;
#X connect 14 0 24 0;
#X connect 15 0 4 1;
#X connect 15 0 16 0;
#X connect 16 0 17 0;
#X connect 18 0 16 0;
#X connect 19 0 18 0;
#X connect 20 0 12 0;
#X connect 21 0 32 0;
#X connect 22 0 15 0;
#X connect 23 0 22 1;
#X connect 23 0 33 1;
#X connect 24 0 15 0;
#X connect 25 0 24 1;
#X connect 26 0 31 0;
#X connect 27 0 30 1;
#X connect 28 0 34 1;
#X connect 29 0 0 0;
#X connect 30 0 26 0;
#X connect 31 0 34 0;
#X connect 32 0 22 0;
#X connect 32 1 33 0;
#X connect 32 2 31 1;
#X connect 33 0 30 0;
#X connect 34 0 15 0;
#X connect 35 0 14 0;
#X connect 35 1 36 0;
#X connect 36 0 33 0;
#X connect 37 0 7 0;
#X connect 38 0 23 0;
#X connect 39 0 28 0;
#X connect 40 0 27 0;
#X connect 41 0 25 0;
#X connect 42 0 43 0;
#X connect 43 0 29 0;
