#N canvas 314 23 1431 974 12;
#X obj 55 26 tgl 15 0 empty empty empty 17 7 0 10 #fcfcfc #000000 #000000
0 1;
#X obj 55 50 metro 80;
#X obj 55 79 counter 0 0 15;
#X floatatom 55 108 5 0 0 0 - - -, f 5;
#X obj 54 154 seq_trig_pitch_vol;
#X obj 54 455 sine_osc~;
#X obj 56 525 slider_adsr_vol;
#X obj 54 834 dac~;
#X obj 441 154 seq_trig_pitch_vol;
#X obj 441 455 sine_osc~;
#X obj 443 525 slider_adsr_vol;
#X obj 842 153 seq_trig_pitch_vol;
#X obj 842 454 sine_osc~;
#X obj 844 524 slider_adsr_vol;
#X connect 0 0 1 0;
#X connect 1 0 2 0;
#X connect 2 0 3 0;
#X connect 3 0 4 0;
#X connect 3 0 8 0;
#X connect 3 0 11 0;
#X connect 4 0 5 0;
#X connect 4 1 6 1;
#X connect 4 2 6 2;
#X connect 5 0 6 0;
#X connect 6 0 7 0;
#X connect 6 0 7 1;
#X connect 8 0 9 0;
#X connect 8 1 10 1;
#X connect 8 2 10 2;
#X connect 9 0 10 0;
#X connect 10 0 7 0;
#X connect 10 0 7 1;
#X connect 11 0 12 0;
#X connect 11 1 13 1;
#X connect 11 2 13 2;
#X connect 12 0 13 0;
#X connect 13 0 7 0;
#X connect 13 0 7 1;
