#N canvas 385 297 565 549 12;
#X floatatom 46 48 5 0 127 2 Pitch - -, f 5;
#X obj 47 127 mtof;
#X floatatom 46 167 5 0 0 0 - - -, f 5;
#X obj 46 207 osc~;
#X obj 46 441 *~;
#X obj 45 482 dac~;
#X floatatom 126 48 5 0 127 2 Velocity - -, f 5;
#X floatatom 234 47 5 0 5000 2 Duration - -, f 5;
#X obj 235 124 del 1000;
#X obj 47 88 t f b b;
#X obj 125 127 f 127;
#X msg 235 156 0;
#X floatatom 125 203 5 0 0 0 - - -, f 5;
#X obj 125 237 sel 0;
#X obj 124 275 bng 15 250 50 0 empty empty empty 17 7 0 10 #fcfcfc
#000000 #000000;
#X obj 121 405 line~;
#X obj 120 441 snapshot~;
#X floatatom 119 481 5 0 0 0 - - -, f 5;
#X obj 201 469 metro 10;
#X obj 201 441 tgl 15 0 empty empty empty 17 7 0 10 #fcfcfc #000000
#000000 1 1;
#X obj 125 163 expr $f1/127;
#X floatatom 254 265 5 0 0 0 - - -, f 5;
#X obj 254 339 pack f 100;
#X floatatom 321 215 5 0 0 2 Attack - -, f 5;
#X obj 125 339 pack 0 200;
#X floatatom 191 299 5 0 0 2 Release - -, f 5;
#X obj 253 300 t f b;
#X obj 358 285 del;
#X obj 359 337 pack f f;
#X obj 411 291 expr $f1/127;
#X floatatom 409 245 5 0 127 2 Sustain - -, f 5;
#X floatatom 452 338 5 0 5000 2 Decay - -, f 5;
#X connect 0 0 9 0;
#X connect 1 0 2 0;
#X connect 2 0 3 0;
#X connect 3 0 4 0;
#X connect 4 0 5 0;
#X connect 4 0 5 1;
#X connect 6 0 10 1;
#X connect 7 0 8 1;
#X connect 8 0 11 0;
#X connect 9 0 1 0;
#X connect 9 1 10 0;
#X connect 9 2 8 0;
#X connect 10 0 20 0;
#X connect 11 0 12 0;
#X connect 12 0 13 0;
#X connect 13 0 14 0;
#X connect 13 1 21 0;
#X connect 14 0 24 0;
#X connect 15 0 4 1;
#X connect 15 0 16 0;
#X connect 16 0 17 0;
#X connect 18 0 16 0;
#X connect 19 0 18 0;
#X connect 20 0 12 0;
#X connect 21 0 26 0;
#X connect 22 0 15 0;
#X connect 23 0 22 1;
#X connect 23 0 27 1;
#X connect 24 0 15 0;
#X connect 25 0 24 1;
#X connect 26 0 22 0;
#X connect 26 1 27 0;
#X connect 27 0 28 0;
#X connect 28 0 15 0;
#X connect 29 0 28 0;
#X connect 30 0 29 0;
#X connect 31 0 28 1;
