#N canvas 314 170 704 702 12;
#X obj 39 334 mtof;
#X floatatom 38 374 5 0 0 0 - - -, f 5;
#X obj 38 414 osc~;
#X obj 40 571 *~;
#X obj 39 612 dac~;
#X obj 210 624 snapshot~;
#X floatatom 209 664 5 0 0 0 - - -, f 5;
#X obj 291 652 metro 10;
#X obj 291 624 tgl 15 0 empty empty empty 17 7 0 10 #fcfcfc #000000
#000000 0 1;
#X obj 538 42 vsl 15 128 0 4000 0 0 empty empty Dur 0 -9 0 10 #fcfcfc
#000000 #000000 7000 1;
#X obj 562 42 vsl 15 128 0 500 0 0 empty empty A 0 -9 0 10 #fcfcfc
#000000 #000000 10400 1;
#X obj 588 42 vsl 15 128 0 500 0 0 empty empty D 0 -9 0 10 #fcfcfc
#000000 #000000 10800 1;
#X obj 613 42 vsl 15 128 0 127 0 0 empty empty S 0 -9 0 10 #fcfcfc
#000000 #000000 12700 1;
#X obj 639 43 vsl 15 128 0 2000 0 0 empty empty R 0 -9 0 10 #fcfcfc
#000000 #000000 9200 1;
#X obj 211 409 adsr_vol 100 400 4 100 50 800;
#X floatatom 221 128 5 0 127 2 Velocity - -, f 5;
#X floatatom 290 128 5 0 5000 2 Duration - -, f 5;
#X floatatom 378 268 5 0 0 2 Attack - -, f 5;
#X floatatom 536 268 5 0 0 2 Release - -, f 5;
#X floatatom 477 268 5 0 127 2 Sustain - -, f 5;
#X floatatom 428 267 5 0 5000 2 Decay - -, f 5;
#X obj 38 272 t f b;
#X floatatom 38 220 5 0 127 2 Pitch - -, f 5;
#X obj 37 172 bng 15 250 50 0 empty empty empty 17 7 0 10 #fcfcfc #000000
#000000;
#X obj 36 82 key;
#X obj 36 125 sel 32;
#X connect 0 0 1 0;
#X connect 1 0 2 0;
#X connect 2 0 3 0;
#X connect 3 0 4 0;
#X connect 3 0 4 1;
#X connect 5 0 6 0;
#X connect 7 0 5 0;
#X connect 8 0 7 0;
#X connect 9 0 16 0;
#X connect 10 0 17 0;
#X connect 11 0 20 0;
#X connect 12 0 19 0;
#X connect 13 0 18 0;
#X connect 14 0 3 1;
#X connect 14 0 5 0;
#X connect 15 0 14 1;
#X connect 16 0 14 2;
#X connect 17 0 14 3;
#X connect 18 0 14 6;
#X connect 19 0 14 5;
#X connect 20 0 14 4;
#X connect 21 0 0 0;
#X connect 21 1 14 0;
#X connect 22 0 21 0;
#X connect 23 0 22 0;
#X connect 24 0 25 0;
#X connect 25 0 23 0;
