#N canvas 349 202 816 624 12;
#X obj 66 44 inlet~;
#X obj 255 115 delwrite~ \$0-delayline 1000;
#X obj 285 245 delread~ \$0-delayline 1000;
#X floatatom 309 187 5 0 1000 2 DelayTime - -, f 5;
#X obj 65 455 outlet~;
#X obj 64 366 *~;
#X obj 105 291 expr 1-$f1;
#X floatatom 105 325 5 0 0 0 - - -, f 5;
#X floatatom 305 293 5 0 0 0 - - -, f 5;
#X obj 281 328 *~ 0;
#X obj 107 252 * 0.01;
#X obj 107 191 hsl 184 16 0 100 0 0 empty empty empty -2 -8 0 10 #fcfcfc
#000000 #000000 0 1;
#X text 106 174 DRY;
#X text 273 174 WET;
#X connect 0 0 1 0;
#X connect 0 0 5 0;
#X connect 2 0 9 0;
#X connect 3 0 2 0;
#X connect 5 0 4 0;
#X connect 6 0 7 0;
#X connect 7 0 5 1;
#X connect 8 0 9 1;
#X connect 9 0 4 0;
#X connect 10 0 6 0;
#X connect 10 0 8 0;
#X connect 11 0 10 0;
#X coords 0 -1 1 1 274 42 2 101 170;
