#N canvas 586 153 876 775 12;
#X obj 214 173 seq_trig;
#X obj 213 251 seq_pitch;
#X obj 214 354 seq_vol;
#X obj 219 37 inlet;
#X obj 219 77 t f f f;
#X obj 114 470 bang;
#X obj 114 534 pack s f f;
#X obj 114 573 unpack s f f;
#X obj 114 624 outlet;
#X obj 175 625 outlet;
#X obj 237 625 outlet;
#X connect 0 0 5 0;
#X connect 1 0 6 1;
#X connect 2 0 6 2;
#X connect 3 0 4 0;
#X connect 4 0 0 0;
#X connect 4 1 1 0;
#X connect 4 2 2 0;
#X connect 5 0 6 0;
#X connect 6 0 7 0;
#X connect 7 0 9 0;
#X connect 7 1 8 0;
#X connect 7 2 10 0;
#X coords 0 -1 1 1 340 280 1 210 166;
#X scroll 1;
