#N canvas 474 175 1122 526 12;
#N canvas 0 22 450 300 (subpatch) 0;
#X array \$0-sequnit-vol 16 float 2 black black;
#X coords 0 127 16 0 240 20 1;
#X restore 309 72 graph;
#X floatatom 416 368 5 0 0 0 - - -, f 5;
#X floatatom 504 380 5 0 0 0 - - -, f 5;
#X obj 415 319 unpack 0 0;
#X msg 68 196 \$1 0;
#X msg 111 197 \$1 1;
#X msg 154 197 \$1 2;
#X msg 197 197 \$1 3;
#X msg 242 197 \$1 4;
#X msg 285 198 \$1 5;
#X msg 328 198 \$1 6;
#X msg 371 198 \$1 7;
#X msg 415 198 \$1 8;
#X msg 458 199 \$1 9;
#X msg 501 199 \$1 10;
#X msg 551 198 \$1 11;
#X msg 601 198 \$1 12;
#X msg 651 197 \$1 13;
#X msg 700 198 \$1 14;
#X msg 750 197 \$1 15;
#X obj 879 150 inlet;
#X floatatom 879 179 5 0 0 0 - - -, f 5;
#X floatatom 879 236 5 0 0 0 - - -, f 5;
#X obj 879 293 outlet;
#X floatatom 279 93 5 0 127 0 - - -, f 5;
#X obj 879 207 tabread \$0-sequnit-vol;
#X obj 416 420 tabwrite \$0-sequnit-vol;
#X floatatom 317 94 5 0 127 0 - - -, f 5;
#X floatatom 355 94 5 0 127 0 - - -, f 5;
#X floatatom 393 94 5 0 127 0 - - -, f 5;
#X floatatom 430 94 5 0 127 0 - - -, f 5;
#X floatatom 468 95 5 0 127 0 - - -, f 5;
#X floatatom 505 95 5 0 127 0 - - -, f 5;
#X floatatom 541 95 5 0 127 0 - - -, f 5;
#X floatatom 296 113 5 0 127 0 - - -, f 5;
#X floatatom 337 114 5 0 127 0 - - -, f 5;
#X floatatom 376 114 5 0 127 0 - - -, f 5;
#X floatatom 415 115 5 0 127 0 - - -, f 5;
#X floatatom 453 116 5 0 127 0 - - -, f 5;
#X floatatom 491 116 5 0 127 0 - - -, f 5;
#X floatatom 528 116 5 0 127 0 - - -, f 5;
#X floatatom 566 115 5 0 127 0 - - -, f 5;
#X connect 1 0 26 0;
#X connect 2 0 26 1;
#X connect 3 0 1 0;
#X connect 3 1 2 0;
#X connect 4 0 3 0;
#X connect 5 0 3 0;
#X connect 6 0 3 0;
#X connect 7 0 3 0;
#X connect 8 0 3 0;
#X connect 9 0 3 0;
#X connect 10 0 3 0;
#X connect 11 0 3 0;
#X connect 12 0 3 0;
#X connect 13 0 3 0;
#X connect 14 0 3 0;
#X connect 15 0 3 0;
#X connect 16 0 3 0;
#X connect 17 0 3 0;
#X connect 18 0 3 0;
#X connect 19 0 3 0;
#X connect 20 0 21 0;
#X connect 21 0 25 0;
#X connect 22 0 23 0;
#X connect 24 0 4 0;
#X connect 25 0 22 0;
#X connect 27 0 6 0;
#X connect 28 0 8 0;
#X connect 29 0 10 0;
#X connect 30 0 12 0;
#X connect 31 0 14 0;
#X connect 32 0 16 0;
#X connect 33 0 18 0;
#X connect 34 0 5 0;
#X connect 35 0 7 0;
#X connect 36 0 9 0;
#X connect 37 0 11 0;
#X connect 38 0 13 0;
#X connect 39 0 15 0;
#X connect 40 0 17 0;
#X connect 41 0 19 0;
#X coords 0 127 16 0 330 85 2 277 60;
#X scroll 1;
