#N canvas 217 673 665 572 12;
#X obj 97 215 mtof;
#X floatatom 97 248 5 0 0 0 - - -, f 5;
#X floatatom 98 180 5 0 127 2 Pitch - -, f 5;
#X obj 97 97 sel 0;
#X obj 98 136 + 59;
#X obj 97 280 osc~;
#X obj 97 315 outlet~;
#X obj 96 59 inlet;
#X floatatom 142 179 5 0 127 2 BassPitch - -, f 5;
#X connect 0 0 1 0;
#X connect 1 0 5 0;
#X connect 2 0 0 0;
#X connect 3 1 4 0;
#X connect 4 0 2 0;
#X connect 5 0 6 0;
#X connect 7 0 3 0;
#X connect 8 0 4 1;
#X coords 0 -1 1 1 120 40 2 92 163;
