#N canvas 56 164 971 594 12;
#X obj 179 404 *~;
#X obj 395 367 snapshot~;
#X floatatom 394 407 5 0 0 0 - - -, f 5;
#X obj 476 395 metro 10;
#X obj 476 367 tgl 15 0 empty empty empty 17 7 0 10 #fcfcfc #000000
#000000 0 1;
#X obj 480 50 vsl 15 128 0 4000 0 0 empty empty Dur 0 -9 0 10 #fcfcfc
#000000 #000000 0 1;
#X obj 504 50 vsl 15 128 0 500 0 0 empty empty A 0 -9 0 10 #fcfcfc
#000000 #000000 0 1;
#X obj 530 50 vsl 15 128 0 500 0 0 empty empty D 0 -9 0 10 #fcfcfc
#000000 #000000 0 1;
#X obj 555 50 vsl 15 128 0 127 0 0 empty empty S 0 -9 0 10 #fcfcfc
#000000 #000000 0 1;
#X obj 581 51 vsl 15 128 0 2000 0 0 empty empty R 0 -9 0 10 #fcfcfc
#000000 #000000 0 1;
#X obj 395 328 adsr_vol 100 400 4 100 50 800;
#X floatatom 392 251 5 0 127 2 Velocity - -, f 5;
#X floatatom 451 252 5 0 5000 2 Duration - -, f 5;
#X floatatom 503 253 5 0 0 2 Attack - -, f 5;
#X floatatom 661 253 5 0 0 2 Release - -, f 5;
#X floatatom 602 253 5 0 127 2 Sustain - -, f 5;
#X floatatom 553 252 5 0 5000 2 Decay - -, f 5;
#X obj 180 253 t b;
#X obj 180 105 inlet;
#X obj 231 106 inlet;
#X obj 179 443 outlet~;
#X obj 106 106 inlet~;
#X connect 0 0 20 0;
#X connect 1 0 2 0;
#X connect 3 0 1 0;
#X connect 4 0 3 0;
#X connect 5 0 12 0;
#X connect 6 0 13 0;
#X connect 7 0 16 0;
#X connect 8 0 15 0;
#X connect 9 0 14 0;
#X connect 10 0 0 1;
#X connect 10 0 1 0;
#X connect 11 0 10 1;
#X connect 12 0 10 2;
#X connect 13 0 10 3;
#X connect 14 0 10 6;
#X connect 15 0 10 5;
#X connect 16 0 10 4;
#X connect 17 0 10 0;
#X connect 18 0 17 0;
#X connect 19 0 11 0;
#X connect 21 0 0 0;
#X coords 0 -1 1 1 330 260 2 386 22;
