#N canvas 526 254 1138 668 12;
#X obj 141 353 soundfiler;
#N canvas 0 22 450 300 (subpatch) 0;
#X array hh 3075 float 0 black black;
#X coords 0 1 3074 -1 101 70 1;
#X restore 140 377 graph;
#X obj 60 60 bng 15 250 50 0 empty empty empty 17 7 0 10 #fcfcfc #000000
#000000;
#X obj 128 27 loadbang;
#X obj 214 76 bng 15 250 50 0 empty empty empty 17 7 0 10 #fcfcfc #000000
#000000;
#X obj 140 204 soundfiler;
#N canvas 0 22 450 300 (subpatch) 0;
#X array bd 2494 float 0 black black;
#X coords 0 1 2493 -1 101 70 1;
#X restore 139 228 graph;
#X obj 137 516 soundfiler;
#N canvas 0 22 450 300 (subpatch) 0;
#X array sd 10294 float 0 black black;
#X coords 0 1 10293 -1 101 70 1;
#X restore 136 540 graph;
#X obj 249 139 metro 500;
#X obj 289 286 select 0 1 2 3 4 5 6 7;
#X obj 416 625 dac~;
#X obj 282 479 line~;
#X obj 450 459 line~;
#X obj 620 449 line~;
#X obj 292 194 random 8;
#X floatatom 404 229 5 0 0 0 - - -, f 5;
#X msg 27 164 read -resize ./sounds/bd.wav bd;
#X msg 28 313 read -resize ./sounds/hh.wav hh;
#X msg 24 476 read -resize ./sounds/sd.wav sd;
#X obj 290 531 tabread~ bd;
#X obj 465 552 tabread~ hh;
#X obj 629 551 tabread~ sd;
#X obj 391 51 tgl 15 0 empty empty empty 17 7 0 10 #fcfcfc #000000
#000000 1 1;
#X msg 391 75 \; pd dsp \$1;
#X msg 282 440 0 \, 2494 56.5532;
#X msg 450 420 0 \, 3075 69.7278;
#X msg 620 410 0 \, 10294 233.424;
#X connect 2 0 18 0;
#X connect 2 0 17 0;
#X connect 2 0 19 0;
#X connect 3 0 2 0;
#X connect 3 0 9 0;
#X connect 3 0 23 0;
#X connect 4 0 9 0;
#X connect 9 0 15 0;
#X connect 10 0 25 0;
#X connect 10 1 26 0;
#X connect 10 2 27 0;
#X connect 10 3 26 0;
#X connect 10 4 25 0;
#X connect 10 5 25 0;
#X connect 10 6 27 0;
#X connect 10 7 26 0;
#X connect 12 0 20 0;
#X connect 13 0 21 0;
#X connect 14 0 22 0;
#X connect 15 0 16 0;
#X connect 15 0 10 0;
#X connect 17 0 5 0;
#X connect 18 0 0 0;
#X connect 19 0 7 0;
#X connect 20 0 11 0;
#X connect 20 0 11 1;
#X connect 21 0 11 0;
#X connect 21 0 11 1;
#X connect 22 0 11 0;
#X connect 22 0 11 1;
#X connect 23 0 24 0;
#X connect 25 0 12 0;
#X connect 26 0 13 0;
#X connect 27 0 14 0;
